<svg width="616" height="61" viewBox="0 0 616 61" fill="none" xmlns="http://www.w3.org/2000/svg">
<path d="M73.7621 30.0756L77 14.7398L59.8704 14.7398L63.0281 3.12881e-06L44.8842 4.715e-06L38.5 30.0756L73.7621 30.0756Z" fill="#A5CE3A"/>
<path d="M150.762 30.0756L154 14.7398L136.87 14.7398L140.028 3.12881e-06L121.884 4.715e-06L115.5 30.0756L150.762 30.0756Z" fill="#A5CE3A"/>
<path d="M227.762 30.0756L231 14.7398L213.87 14.7398L217.028 3.12881e-06L198.884 4.715e-06L192.5 30.0756L227.762 30.0756Z" fill="#A5CE3A"/>
<path d="M304.762 30.0756L308 14.7398L290.87 14.7398L294.028 3.12881e-06L275.884 4.715e-06L269.5 30.0756L304.762 30.0756Z" fill="#A5CE3A"/>
<path d="M381.762 30.0756L385 14.7398L367.87 14.7398L371.028 3.12881e-06L352.884 4.715e-06L346.5 30.0756L381.762 30.0756Z" fill="#A5CE3A"/>
<path d="M458.762 30.0756L462 14.7398L444.87 14.7398L448.028 3.12881e-06L429.884 4.715e-06L423.5 30.0756L458.762 30.0756Z" fill="#A5CE3A"/>
<path d="M535.762 30.0756L539 14.7398L521.87 14.7398L525.028 3.12881e-06L506.884 4.715e-06L500.5 30.0756L535.762 30.0756Z" fill="#A5CE3A"/>
<path d="M612.762 30.0756L616 14.7398L598.87 14.7398L602.028 3.12881e-06L583.884 4.715e-06L577.5 30.0756L612.762 30.0756Z" fill="#A5CE3A"/>
<path d="M3.23794 29.9795L0 45.3153H17.1296L13.9719 60.0551H32.1158L38.5 29.9795L3.23794 29.9795Z" fill="#A5CE3A"/>
<path d="M80.2379 29.9795L77 45.3153H94.1296L90.9719 60.0551H109.116L115.5 29.9795L80.2379 29.9795Z" fill="#A5CE3A"/>
<path d="M157.238 29.9795L154 45.3153H171.13L167.972 60.0551H186.116L192.5 29.9795L157.238 29.9795Z" fill="#A5CE3A"/>
<path d="M234.238 29.9795L231 45.3153H248.13L244.972 60.0551H263.116L269.5 29.9795L234.238 29.9795Z" fill="#A5CE3A"/>
<path d="M311.238 29.9795L308 45.3153H325.13L321.972 60.0551H340.116L346.5 29.9795L311.238 29.9795Z" fill="#A5CE3A"/>
<path d="M388.238 29.9795L385 45.3153H402.13L398.972 60.0551H417.116L423.5 29.9795L388.238 29.9795Z" fill="#A5CE3A"/>
<path d="M465.238 29.9795L462 45.3153H479.13L475.972 60.0551H494.116L500.5 29.9795L465.238 29.9795Z" fill="#A5CE3A"/>
<path d="M542.238 29.9795L539 45.3153H556.13L552.972 60.0551H571.116L577.5 29.9795L542.238 29.9795Z" fill="#A5CE3A"/>
</svg>
