<svg width="208" height="71" viewBox="0 0 208 71" fill="none" xmlns="http://www.w3.org/2000/svg">
<g clip-path="url(#clip0_24_325)">
<path d="M193.876 12.2731V10.4279H208V0.220581H0V10.4279H14.1314V12.2731H0V22.1924H14.1314V24.0376H0V34.2683H14.1314V36.1135H0V46.5155H14.1314V48.3607H0V58.3189H14.1314V60.1641H0V70.278H208V60.1641H193.876V58.3189H208V48.3607H193.876V46.5155H208V36.1135H193.876V34.2683H208V24.0376H193.876V22.1924H208V12.2731H193.876ZM66.6628 24.9797H52.8662C53.3411 23.0488 53.0297 21.6006 52.0019 20.5651C51.0443 19.5296 49.3703 18.9768 47.0268 18.9768C43.8501 18.9768 40.6579 21.0478 40.1285 23.5315C39.3577 27.1909 43.5231 28.3588 46.9723 29.3242C54.8672 31.4654 66.8263 32.2907 63.9766 45.7447C61.7499 56.2323 50.3436 61.2074 38.8204 61.2074C27.2973 61.2074 17.7363 57.8128 20.399 44.2965H34.1956C33.1367 48.9836 36.0331 51.5374 41.0005 51.5374C44.1849 51.5374 48.5995 49.879 49.3002 46.57C50.7406 39.8118 40.2141 41.26 30.3961 36.495C25.8336 34.2838 24.3231 29.7369 25.4676 24.3568C28.5275 12.5612 39.5601 9.3145 49.9776 9.3145C60.3951 9.3145 70.0263 12.9739 66.6628 24.9719V24.9797ZM110.988 30.2897L108.94 39.9442H86.727L84.4847 50.5019H108.629L106.573 60.1564H68.6326L79.2214 10.35H117.162L116.461 13.6279L115.099 20.0123H90.9548L88.7669 30.2897H110.98H110.988ZM162.484 24.9797H148.687C149.162 23.0488 148.851 21.6006 147.823 20.5651C146.865 19.5296 145.191 18.9768 142.848 18.9768C139.671 18.9768 136.479 21.0478 135.949 23.5315C135.179 27.1909 139.344 28.3588 142.793 29.3242C150.688 31.4654 162.647 32.2907 159.798 45.7447C157.571 56.2323 146.164 61.2074 134.641 61.2074C126.108 61.2074 118.711 59.37 116.469 53.0011C115.667 50.7199 115.519 47.8624 116.22 44.2887H130.017C128.958 48.9758 131.854 51.5296 136.821 51.5296C140.006 51.5296 144.42 49.8712 145.121 46.5622C146.562 39.804 136.035 41.2522 126.217 36.4873C121.655 34.2761 120.144 29.7291 121.281 24.349C124.341 12.5534 135.373 9.30671 145.791 9.30671C156.208 9.30671 165.839 12.9661 162.476 24.9641L162.484 24.9797ZM178.11 60.1641H164.313L174.902 10.3578H188.699L178.11 60.1641Z" fill="white"/>
</g>
<defs>
<clipPath id="clip0_24_325">
<rect width="208" height="70.0574" fill="white" transform="translate(0 0.220581)"/>
</clipPath>
</defs>
</svg>
