<svg width="695" height="242" viewBox="0 0 695 242" fill="none" xmlns="http://www.w3.org/2000/svg">
<g clip-path="url(#clip0_24_94)">
<path d="M92.3611 38.4705L85.8169 80.4914C71.4964 92.2286 59.8916 96.9977 41.067 96.9977C17.1952 96.9977 0 83.0879 0 58.249C0 24.5607 22.9181 0 57.0302 0C72.172 0 83.3661 4.37165 92.6393 16.5063L70.1319 33.7015C65.7602 28.2435 60.0374 25.3821 53.0825 25.3821C38.0731 25.3821 30.4426 40.8021 30.4426 54.0363C30.4426 63.7201 35.3574 71.4964 45.7169 71.4964C48.989 71.4964 56.2221 70.8208 58.5404 68.0918L59.6267 61.5476H45.8494L49.5321 38.497H92.3743L92.3611 38.4705Z" fill="white"/>
<path d="M142.569 90.7185C142.569 89.7647 142.701 88.8109 142.847 88.122C137.111 94.2556 128.659 97.1303 120.472 97.1303C103.555 97.1303 94.6925 84.585 94.6925 68.6218C94.6925 46.6576 108.059 24.5609 131.931 24.5609C138.21 24.5609 146.252 26.336 150.08 31.6482L150.623 25.9121H180.231L170.812 85.6712C170.534 87.5789 170.402 89.354 170.402 90.7185C170.402 93.7257 170.812 95.4876 170.812 95.4876H143.112C142.754 94.4013 142.569 92.7984 142.569 90.7185ZM146.384 57.7059C146.384 52.3805 143.112 48.5652 137.654 48.5652C130.01 48.5652 125.241 55.7983 125.241 62.8857C125.241 68.2111 128.513 72.1589 133.971 72.1589C141.615 72.1589 146.384 64.9258 146.384 57.6927V57.7059Z" fill="white"/>
<path d="M190.445 30.6944C190.445 27.833 190.034 25.9253 190.034 25.9253H219.497C219.907 27.4223 220.185 29.065 220.185 30.6944C220.185 31.7807 220.053 33.1452 219.775 34.3772C224.689 28.6411 231.512 24.5609 239.142 24.5609C247.74 24.5609 255.238 26.7467 257.424 35.8874C263.557 27.833 270.247 24.5609 280.474 24.5609C293.987 24.5609 300.253 32.0589 300.253 45.2931C300.253 48.1545 299.842 51.0292 299.432 53.8907L294.384 85.6712C294.106 87.5789 293.974 89.354 293.974 90.7185C293.974 93.7257 294.384 95.4876 294.384 95.4876H265.054C264.684 94.4013 264.511 92.7984 264.511 90.7185C264.511 89.0758 264.644 87.1682 265.054 84.8499L267.505 71.0726C268.591 65.0715 269.28 59.3354 269.28 55.3876C269.28 52.1155 268.327 49.6515 264.644 49.6515C259.186 49.6515 257.954 55.6526 257.278 60.0242L251.688 95.5008H221.947L226.491 69.3504C227.246 65.0185 227.948 58.3286 227.948 55.3876C227.948 52.1155 227.127 49.6515 223.444 49.6515C217.986 49.6515 216.754 55.6526 216.079 60.0242L210.343 95.5008H180.602L190.021 35.7417C190.326 33.8341 190.432 32.1914 190.432 30.6944H190.445Z" fill="white"/>
<path d="M372.584 86.9032C358.807 96.9977 346.659 97.4084 337.664 97.4084C319.117 97.4084 305.062 87.857 305.062 68.6217C305.062 42.8422 323.622 24.6933 348.447 24.6933C363.046 24.6933 377.234 30.8268 377.234 47.8895C377.234 63.5745 367.272 70.3969 350.501 70.3969C344.089 70.3969 339.995 69.5756 332.63 67.5355V67.6414C333.491 74.6626 339.201 77.2193 345.983 77.2193C352.766 77.2193 359.085 75.1792 363.986 72.3045L372.584 86.9032ZM343.254 54.3013C349.944 54.3013 354.435 52.6586 354.435 46.6575C354.435 42.9747 351.428 41.0671 347.348 41.0671C342.168 41.0671 335.61 47.0682 334.524 53.4799C336.975 53.8906 340.115 54.3013 343.254 54.3013Z" fill="white"/>
<path d="M405.199 122.486C395.582 122.486 390.534 115.345 390.534 106.271C390.534 93.7786 398.138 81.22 411.704 81.22C415.267 81.22 419.851 82.2268 422.023 85.2472L423.653 73.616C423.812 72.4502 423.891 71.3639 423.891 70.4366C423.891 68.9661 423.732 68.0388 423.732 68.0388H440.49C440.49 68.0388 440.729 68.8867 440.729 70.5956C440.729 71.5229 440.649 72.6887 440.424 74.0796L433.827 115.968C433.668 117.054 433.588 118.061 433.588 118.843C433.588 120.552 433.827 121.558 433.827 121.558H418.076C417.864 120.936 417.758 120.048 417.758 119.161C417.758 118.525 417.811 117.902 417.917 117.372C414.658 120.856 409.849 122.486 405.199 122.486ZM419.93 100.071C419.93 97.0507 418.062 94.8781 414.963 94.8781C410.617 94.8781 407.902 98.9848 407.902 103.025C407.902 106.046 409.756 108.298 412.869 108.298C417.215 108.298 419.93 104.191 419.93 100.071Z" fill="white"/>
<path d="M467.33 118.843C467.33 118.3 467.409 117.757 467.489 117.372C464.23 120.856 459.421 122.486 454.771 122.486C445.154 122.486 440.106 115.345 440.106 106.271C440.106 93.7787 447.71 81.2201 461.276 81.2201C464.839 81.2201 469.423 82.2269 471.596 85.2473L471.9 81.9884H488.738L483.386 115.955C483.227 117.041 483.147 118.048 483.147 118.83C483.147 120.538 483.386 121.545 483.386 121.545H467.635C467.423 120.923 467.33 120.022 467.33 118.83V118.843ZM469.502 100.071C469.502 97.0508 467.635 94.8782 464.535 94.8782C460.189 94.8782 457.474 98.9849 457.474 103.025C457.474 106.046 459.342 108.298 462.442 108.298C466.787 108.298 469.502 104.191 469.502 100.071Z" fill="white"/>
<path d="M505.098 110.855C505.8 110.855 507.271 110.696 507.271 109.689C507.271 108.47 505.27 107.9 502.714 107.159C498.09 105.821 491.612 103.953 491.612 96.8123C491.612 86.413 500.448 81.1406 510.066 81.1406C515.961 81.1406 520.465 82.3063 525.42 85.6447L519.286 95.5008C516.65 93.6329 512.305 91.9372 508.966 91.9372C508.264 91.9372 506.714 92.0962 506.714 93.103C506.714 94.1098 508.45 94.6264 510.781 95.3286C515.418 96.7593 522.386 98.8921 522.386 106.748C522.386 117.836 512.609 122.565 502.687 122.565C496.713 122.565 490.513 121.174 486.009 117.054L493.295 106.655C496.169 108.907 501.362 110.841 505.085 110.841L505.098 110.855Z" fill="white"/>
<path d="M184.388 186.343C184.613 186.555 184.613 186.979 184.825 187.178C184.6 188.436 184.388 189.695 183.288 190.542C181.752 191.377 181.089 192.225 179.539 193.059C169.405 198.743 161.47 200.213 153.985 202.306C149.574 203.565 145.175 203.989 140.764 203.777C134.816 203.353 129.967 201.246 126.444 196.411C126.218 195.987 125.781 195.576 125.344 195.152C125.344 195.152 125.119 195.153 124.907 194.941C116.309 205.87 107.288 216.812 97.5907 226.695C96.266 227.953 94.9412 229.212 93.4045 230.271C91.4174 231.742 89.2183 232.59 86.794 232.378C79.3092 231.53 77.5473 224.39 77.0969 218.283C76.6598 213.659 76.8717 208.824 77.9845 204.187C80.634 189.681 83.9326 178.739 88.7812 165.068C89.2183 163.809 89.2183 162.749 89.0064 161.491C89.0064 158.974 89.8939 156.867 92.093 155.185C93.4178 155.821 94.7425 156.232 96.054 156.867C97.3787 157.291 98.7035 156.655 99.803 156.232C100.24 156.655 100.465 156.867 100.691 157.079C101.353 158.338 102.015 159.596 102.678 160.868C102.015 163.597 101.141 166.339 100.253 168.856C94.9677 183.998 89.2316 200.822 89.2316 217.011C90.5563 217.223 90.9935 216.375 91.4306 215.752C97.3787 209.658 102.664 203.141 107.95 196.61C113.673 189.668 119.409 182.726 125.132 175.798C128.881 170.963 132.617 166.339 136.366 161.504C137.465 160.034 138.565 158.351 140.552 157.305C143.639 158.987 146.275 161.305 148.924 163.61C149.362 165.505 148.487 166.763 147.388 168.234C144.964 170.963 142.539 173.917 140.34 176.858C138.803 178.964 137.479 181.269 136.591 183.799C136.154 185.27 135.929 186.74 136.154 188.211C136.379 189.893 137.479 191.152 139.241 191.576C140.34 191.788 141.44 192 142.764 192.212C145.414 192.424 147.838 191.788 150.474 191.165C157.085 189.271 164.358 188.012 173.83 182.753C175.592 181.918 176.479 180.024 178.453 178.964C180.652 181.693 182.639 184.011 184.401 186.33L184.388 186.343Z" fill="#FFC907"/>
<path d="M188.786 214.096C191.873 212.414 194.959 210.52 197.821 208.413C205.306 203.154 212.578 197.484 220.077 192.013C224.488 188.648 231.536 182.766 236.159 179.189C239.02 180.66 241.882 182.766 244.531 185.071C243.869 187.588 242.995 189.072 240.57 190.754C228.899 200.213 214.791 211.367 202.457 219.78C197.172 223.356 190.998 226.721 184.613 227.768C178.003 228.814 172.717 226.297 169.856 220.614C167.206 215.355 166.994 209.884 168.094 204.214C170.518 190.33 177.566 177.719 184.613 165.518C185.276 164.26 185.938 162.988 186.15 161.729C187.037 158.152 189.237 155.635 192.323 153.529C195.41 155.635 198.046 157.729 201.133 159.835C201.133 161.941 199.808 163.836 198.708 165.717C195.847 170.552 192.986 175.175 190.111 180.223C185.925 187.787 179.751 201.246 179.751 210.082C179.751 211.977 179.977 214.083 181.513 215.964C184.375 215.964 186.587 215.13 188.786 214.07V214.096ZM216.765 126.822C217.427 127.034 218.301 127.246 218.527 127.67C219.414 128.505 220.514 128.306 221.613 128.505C222.501 130.399 221.838 132.505 222.05 134.599C221.388 135.234 220.951 136.069 220.288 136.705C217.427 140.494 214.566 144.269 211.691 147.846C210.591 149.104 209.704 150.363 208.392 151.635C207.505 152.483 206.405 153.105 205.306 153.741C202.007 151.635 200.02 148.906 197.596 146.376C197.821 145.952 197.596 145.541 197.821 145.541C200.02 143.435 201.782 140.918 203.544 138.599C205.968 135.234 208.392 132.082 210.817 128.929C211.479 128.094 212.353 127.67 213.241 126.822H216.765Z" fill="#FFC907"/>
<path d="M218.751 219.78C218.977 219.356 219.189 218.932 219.414 218.521L220.739 215.58C220.964 215.156 221.176 214.732 221.401 214.322C227.349 199.604 233.522 184.886 240.57 170.579C242.332 167.002 244.319 163.637 246.081 160.06C246.743 158.59 247.406 157.331 247.618 155.861C247.618 154.178 248.055 153.754 250.479 151.237C252.903 152.284 255.765 152.085 257.964 153.556C258.851 153.98 259.726 154.602 260.388 155.026C260.825 157.967 259.951 160.073 258.626 162.18C254.665 169.121 251.141 176.063 248.055 183.203C247.83 183.839 247.83 184.25 247.83 184.886C255.102 176.898 262.587 168.909 269.86 160.908C271.622 159.226 273.159 157.331 275.146 155.861C278.232 157.119 279.994 160.272 283.518 160.272C284.618 162.378 283.955 164.061 283.293 165.955C282.856 167.638 282.193 169.32 281.756 171.003C281.319 172.897 281.094 175.003 281.094 176.884C280.657 179.613 281.981 182.144 283.743 184.25C285.942 187.191 288.804 188.039 292.341 187.191C294.328 186.767 296.302 186.356 298.289 185.508C304.899 182.779 298.951 185.296 305.562 182.568C307.986 181.521 310.185 180.461 312.398 179.415C313.934 178.779 313.934 178.991 316.359 178.991C318.12 181.932 319.22 185.085 320.32 188.449C319.882 188.661 319.657 189.085 319.22 189.284C309.748 193.285 313.047 192.013 303.575 196.014C300.713 197.272 297.627 198.12 294.765 198.743C292.116 199.379 289.479 199.379 287.055 198.955C281.981 198.319 277.809 196.226 274.722 192.225C271.86 188.86 269.211 185.283 268.999 180.872C267.899 180.448 267.674 181.084 267.237 181.72C256.003 193.921 245.207 206.32 234.635 219.144C232.436 221.674 230.224 224.191 229.349 227.556C228.025 227.768 226.7 227.98 225.388 228.192C223.401 226.721 220.977 226.721 218.553 226.297C217.228 224.191 217.89 221.886 218.778 219.78H218.751Z" fill="#FFC907"/>
<path d="M326.043 145.342C318.77 145.342 311.285 145.13 304.012 145.13C302.476 144.918 300.926 144.918 299.389 144.706C297.852 144.706 296.302 144.494 294.977 145.554C293.216 144.706 291.454 144.296 289.917 142.825C290.579 141.567 291.017 140.308 291.679 139.036C292.116 137.778 291.679 136.519 291.017 135.46C292.341 133.989 294.766 132.731 296.739 132.731C308.636 133.777 320.532 133.565 332.216 133.565H335.965C337.065 132.095 338.164 130.624 339.264 129.154C340.151 127.683 341.026 126.425 341.913 125.153C343.45 122.623 345 120.318 347.636 118.423C349.173 118.211 350.935 117.999 352.922 118.847C353.359 120.106 353.359 121.576 353.809 123.047C354.247 124.305 355.134 125.365 356.008 126.624C354.684 128.73 352.485 130.412 351.385 133.141C352.047 133.777 353.147 133.565 354.035 133.565C363.069 133.353 372.104 133.353 381.139 133.141C382.901 133.141 384.888 133.565 386.65 133.777C387.087 133.777 387.537 134.201 387.974 134.413C388.2 134.837 388.412 135.248 388.2 135.672C387.974 138.612 387.763 141.553 387.537 144.72C386.65 144.72 386.001 144.932 385.338 144.932C381.589 144.932 378.065 144.72 374.316 144.932C364.619 144.932 354.935 145.143 345.45 145.355H343.463C343.238 145.779 342.801 146.19 342.364 146.614C331.792 164.074 323.42 182.369 318.796 202.134C317.909 205.287 317.909 208.44 318.134 211.593C318.359 213.699 319.022 215.593 320.333 217.474C321.433 218.945 322.32 219.157 324.294 218.309C325.831 217.673 327.381 216.839 328.705 215.792C331.13 214.11 333.329 212.427 335.316 210.533C343.688 202.757 351.835 194.967 360.208 186.979C362.632 184.661 364.831 182.144 367.044 179.613C367.481 179.189 367.931 178.567 368.368 178.143C371.892 179.613 374.979 181.72 377.84 184.025C376.515 186.343 375.416 188.436 373.429 190.33C363.957 199.789 354.697 209.049 344.788 218.084C339.502 223.131 333.991 227.132 327.169 230.073C325.632 230.497 324.082 230.709 322.545 230.709C320.121 230.709 317.697 230.073 315.498 228.814C312.848 227.556 310.874 225.661 309.55 223.131C306.463 217.872 305.138 212.202 305.801 206.095C307.125 193.894 311.312 182.541 315.935 171.188C319.022 163.2 323.42 156.046 327.394 148.482C327.831 147.435 328.282 146.587 328.719 145.541C327.831 145.541 326.957 145.329 326.069 145.329L326.043 145.342Z" fill="#FFC907"/>
<path d="M400.732 201.697C394.347 208.85 387.299 214.732 379.139 220.203C376.714 221.674 374.065 222.31 370.991 222.31C363.719 221.886 359.969 215.58 359.969 209.062C359.969 192.026 369.216 175.414 377.814 161.12C378.476 159.861 379.35 158.59 379.801 157.331C380.688 155.649 381.563 154.602 382.888 153.542C386.849 153.966 389.273 157.119 392.585 158.378C392.147 160.696 391.485 162.577 390.16 164.472C381.126 177.719 374.078 192.225 372.316 208.003C372.316 208.639 372.541 209.049 372.541 209.473C373.429 210.109 373.866 209.685 374.303 209.261C389.286 200.014 409.992 173.506 419.689 159.424C420.351 158.576 421.014 157.742 421.676 156.907C421.901 156.695 422.338 156.271 422.776 156.059C426.074 157.318 428.949 159.424 431.81 161.531C432.473 162.789 432.036 163.849 431.373 164.895C430.048 167.412 428.724 169.731 427.412 172.261C422.564 181.309 418.377 190.556 415.741 200.438C414.854 203.591 413.979 206.956 414.204 210.321C414.204 211.579 413.979 212.639 415.092 213.898C415.754 213.898 416.629 213.898 417.291 213.686C418.828 212.851 420.378 212.003 421.703 210.957C426.551 207.804 430.512 203.591 434.698 199.816C439.322 195.616 450.118 185.522 454.742 181.309C455.629 180.262 456.729 179.627 457.828 178.58C461.127 180.474 463.551 182.991 466.201 185.31C466.201 186.356 465.538 187.204 465.101 187.827C455.841 196.663 446.594 205.486 437.123 213.898C434.473 216.216 431.4 218.521 428.525 220.839C425.226 223.568 420.153 226.099 415.529 226.099C408.694 226.099 402.533 220.839 401.871 213.686C401.646 209.486 402.096 205.274 402.971 201.074C403.196 200.65 403.196 200.24 403.196 199.392C402.096 200.438 401.434 200.862 400.772 201.71L400.732 201.697Z" fill="#FFC907"/>
<path d="M500.962 189.92C492.589 198.756 484.217 207.791 475.633 216.839C469.684 223.144 462.2 230.086 452.94 230.086C448.754 229.662 445.455 226.721 444.342 222.522C443.68 219.369 443.455 216.216 443.905 213.063C446.554 190.768 467.035 160.497 489.065 153.556C491.265 152.721 493.477 152.297 495.901 152.297C503.611 152.297 509.122 156.497 510.884 163.65C510.884 164.074 510.884 164.485 511.109 164.909C511.997 165.121 512.209 164.485 512.434 164.074C521.469 144.309 536.226 121.603 549.884 104.355C550.772 103.096 551.421 102.036 552.083 100.778C553.62 98.4595 555.395 96.5784 558.032 95.0947C561.118 96.989 563.543 99.5061 566.179 101.824C565.954 103.295 565.516 104.553 564.642 105.613C559.794 110.66 555.607 116.344 551.646 121.801C536.889 143.249 521.906 166.379 514.858 191.403C513.533 196.027 513.321 200.862 513.533 205.499C513.759 207.605 514.196 209.288 515.733 210.97C516.395 210.97 517.057 210.97 517.72 210.758C520.144 210.122 522.131 209.076 524.105 207.605C533.14 200.041 541.724 192.463 550.322 184.475C551.858 182.793 553.408 181.11 555.833 180.064C558.919 182.17 561.118 184.899 563.543 187.84C563.105 188.264 562.88 188.886 562.443 189.31C553.633 197.723 549.659 201.299 540.85 209.499C533.802 215.593 525.204 222.747 515.295 222.747C511.772 222.747 508.91 221.7 506.698 219.17C503.611 216.017 502.074 212.228 501.412 207.817C500.524 201.723 500.975 195.404 502.737 189.31V188.052C501.849 188.886 501.412 189.31 500.975 189.946L500.962 189.92ZM495.451 174.566C496.987 172.036 498.1 169.943 498.749 167.2C498.749 164.882 497.425 163.624 495.226 164.048C492.801 164.471 490.602 165.518 488.615 166.565C472.533 175.189 456.887 198.743 456.013 215.567C456.013 215.991 455.788 216.613 456.676 217.037C457.563 216.613 458.437 216.189 459.325 215.355C461.974 213.037 464.836 210.52 467.472 207.989C470.334 205.048 472.983 202.107 475.845 199.153C481.793 192.847 487.516 186.542 493.689 180.223C493.464 177.904 494.351 176.222 495.451 174.539V174.566Z" fill="#FFC907"/>
<path d="M565.516 211.99C575.425 210.52 587.772 202.319 595.257 196.424C603.192 190.741 607.815 187.588 615.751 181.706C617.075 180.859 617.738 179.388 619.5 178.977C622.361 180.66 624.785 182.766 627.21 184.449C627.872 186.343 627.21 187.602 625.885 188.648C625.223 189.284 624.56 189.907 623.898 190.33C615.751 196.424 610.902 199.789 602.967 205.684C593.932 212.414 579.175 221.873 567.715 223.555C564.192 223.979 560.88 224.191 557.356 223.343C550.52 221.237 546.785 214.931 546.334 208.413C546.109 203.154 546.996 198.107 548.758 193.059C553.607 178.964 563.304 164.67 577.399 157.517C580.923 155.622 584.672 154.788 588.858 155C594.369 155.212 598.33 159.199 598.556 164.458C598.993 168.247 597.668 171.612 595.469 174.553C587.322 185.071 574.538 191.589 561.317 194.318C561.317 194.742 560.88 195.364 560.655 196.212C559.33 199.365 558.667 202.73 558.667 206.095C558.667 207.989 558.893 209.672 560.204 211.354C561.966 212.401 563.728 212.189 565.49 211.99H565.516ZM585.123 167.2C578.737 169.519 574.551 173.718 571.027 178.553C577.201 176.036 583.586 170.989 585.123 167.2Z" fill="#FFC907"/>
<path d="M648.353 190.754C660.249 184.449 671.92 177.931 683.604 171.413C685.803 170.367 688.015 169.095 690.652 168.896C692.851 171.837 693.95 175.202 695.5 178.355C692.639 180.249 689.552 181.508 686.691 182.978C684.041 184.661 681.18 186.131 678.318 187.601C675.457 189.072 672.595 190.754 669.721 192.437C666.859 193.907 664.21 195.378 661.348 197.06C658.487 198.531 655.837 200.213 652.751 201.895C652.976 202.73 653.188 203.578 653.413 204.214C655.612 209.897 655.175 215.143 652.314 220.402C647.465 229.649 636.456 237.862 626.097 239.955C622.348 240.803 618.387 241.426 614.426 240.379C608.041 238.909 604.729 234.073 606.054 227.966C609.577 216.613 623.673 206.095 633.595 199.789C632.707 199.365 632.058 198.743 631.396 198.319C629.197 197.06 626.985 195.802 624.786 194.318C617.301 189.271 615.751 183.389 619.5 175.387C622.586 168.87 634.695 154.576 643.067 154.576C646.154 154.364 648.79 156.258 649.677 158.152C649.903 158.576 650.115 159.199 650.115 159.835C650.115 161.517 650.115 163.2 649.227 164.882C646.14 165.518 643.054 166.565 640.417 168.671C636.894 171.612 630.508 178.13 630.058 182.766C630.495 183.19 630.946 183.813 631.595 184.449C632.032 184.873 632.482 185.084 633.131 185.495C636.88 187.813 640.616 190.33 644.802 192.861C645.902 192.225 647.227 191.39 648.326 190.754H648.353ZM619.937 227.344C619.5 227.768 619.5 228.178 619.049 228.814C621.036 229.238 622.573 228.814 624.123 228.39C631.171 226.284 636.456 222.297 640.643 216.613C641.53 215.143 641.967 213.672 642.405 212.202C642.842 210.943 642.63 209.884 641.742 208.837C634.695 213.46 624.56 220.402 619.937 227.344Z" fill="#FFC907"/>
</g>
<defs>
<clipPath id="clip0_24_94">
<rect width="695" height="241.05" fill="white"/>
</clipPath>
</defs>
</svg>
